<svg xmlns="http://www.w3.org/2000/svg" xmlns:xlink="http://www.w3.org/1999/xlink" viewBox="0 0 26 45" fill="#fff" fill-rule="evenodd" stroke="#000" stroke-linecap="round" stroke-linejoin="round"><use xlink:href="#E" x=".5" y=".5"/><defs><linearGradient id="A" x1="0%" y1="78%" x2="100%" y2="22%"><stop offset="0%" stop-color="#919191"/><stop offset="100%" stop-color="#fff"/></linearGradient><linearGradient id="B" x1="0%" y1="78%" x2="100%" y2="22%"><stop offset="0%" stop-color="#900"/><stop offset="99%" stop-color="#e80000"/></linearGradient><path id="C" d="M8.728 22.511c0-.207.167-.374.374-.374s.374.167.374.374-.167.374-.374.374-.374-.167-.374-.374z"/><path id="D" d="M10.993 25.226c0-.313.252-.564.564-.564s.564.252.564.564-.252.564-.564.564-.564-.252-.564-.564z"/></defs><symbol id="E" overflow="visible"><g stroke="none" fill-rule="nonzero"><path d="M13.639.869c-.019.079-.02.163-.004.253 0 0 .268 1.777-.036 2.567L.677 37.29a4.81 4.81 0 0 0 2.778 6.171 4.81 4.81 0 0 0 6.197-2.719h.001l12.924-33.6c.253-.657 1.694-1.931 1.694-1.931.072-.055.13-.118.167-.19l.007-.013.021-.042c.333-.866-1.816-2.5-4.801-3.647S13.991-.057 13.657.81c-.006.015-.009.03-.013.045l-.004.014z" fill="#000" opacity=".3"/><path d="M13.267.584c-.02.079-.02.163-.004.253 0 0 .268 1.777-.036 2.567L.305 37.007a4.81 4.81 0 0 0 2.778 6.171 4.81 4.81 0 0 0 6.197-2.719h.001L22.205 6.858c.253-.657 1.694-1.931 1.694-1.931.072-.055.13-.118.167-.19l.006-.013.021-.042c.333-.866-1.816-2.5-4.8-3.647s-5.674-1.376-6.008-.51c-.006.015-.009.03-.013.045l-.004.014z" fill="url(#A)"/><path d="M17.32 15.784L8.007 40.018c-.687 1.737-2.688 2.64-4.462 1.958S.81 39.251 1.464 37.501l5.955-15.483s.744-1.2 2.204-2.053 2.664-.673 4.286-1.394 3.412-2.787 3.412-2.787z" fill="url(#B)"/><path d="M15.306 1.404c.188-.489 1.835-.307 3.693.408s3.203 1.684 3.015 2.172-1.835.307-3.693-.408-3.203-1.684-3.015-2.172z" fill="#333"/><path d="M13.263.836s.264 1.787-.036 2.567L.305 37.007a4.81 4.81 0 0 0 2.778 6.171 4.81 4.81 0 0 0 1.299.301 4.81 4.81 0 0 1-1.612-5.523H2.77L15.436 5.022c0 0-1.724-1.619-2.173-4.183z" opacity=".3"/><use xlink:href="#C" opacity=".5"/><use xlink:href="#D" opacity=".5"/><path d="M6.751 28.455c0-.587.472-1.059 1.059-1.059s1.059.472 1.059 1.059-.472 1.059-1.059 1.059-1.059-.472-1.059-1.059z" opacity=".5"/><use xlink:href="#D" x="-5.462" y="5.187" opacity=".5"/><use xlink:href="#C" x="-0.758" y="12.09" opacity=".5"/></g></symbol></svg>